<?xml version="1.0" standalone="no"?>
<!DOCTYPE svg PUBLIC "-//W3C//DTD SVG 20010904//EN"
 "http://www.w3.org/TR/2001/REC-SVG-20010904/DTD/svg10.dtd">
<svg version="1.0" xmlns="http://www.w3.org/2000/svg"
 width="1280.000000pt" height="640.000000pt" viewBox="0 0 1280.000000 640.000000"
 preserveAspectRatio="xMidYMid meet">
<g transform="translate(0.000000,640.000000) scale(0.100000,-0.100000)"
fill="#000000" stroke="none">
<path d="M9050 4629 c-74 -27 -144 -49 -156 -49 -31 0 -78 -42 -123 -109 -22
-31 -46 -63 -55 -70 -9 -7 -53 -20 -98 -27 -77 -14 -407 -111 -517 -153 -25
-9 -85 -47 -133 -83 -163 -124 -280 -166 -671 -238 -400 -74 -442 -86 -672
-190 -82 -37 -158 -70 -167 -73 -10 -4 -18 -15 -18 -26 0 -12 -34 -47 -92 -96
-51 -42 -132 -115 -179 -161 -48 -46 -94 -84 -103 -84 -23 0 -256 117 -379
191 -56 34 -156 101 -222 149 -121 88 -141 98 -302 140 -23 6 -55 21 -70 34
-24 19 -43 24 -121 28 -78 5 -98 10 -132 32 -22 14 -63 32 -91 38 -43 10 -55
18 -76 50 -13 22 -31 42 -40 45 -9 4 -39 -5 -67 -19 -28 -14 -98 -41 -156 -59
-61 -20 -185 -74 -298 -130 -105 -54 -231 -116 -280 -138 l-87 -39 -190 12
c-188 11 -191 11 -258 -11 -131 -45 -253 -116 -937 -552 -626 -398 -1116 -698
-1312 -802 -280 -150 -585 -295 -740 -354 -216 -82 -278 -112 -278 -136 0 -10
6 -19 13 -19 24 0 199 32 522 96 356 70 382 79 654 203 161 74 271 133 1016
549 727 407 916 500 950 472 20 -17 19 -59 -4 -96 -34 -56 -350 -252 -787
-488 -88 -47 -197 -99 -242 -115 -79 -28 -134 -63 -177 -111 l-20 -23 165 7
c91 4 192 11 226 16 33 5 193 57 355 114 187 66 298 100 305 95 9 -7 5 -36
-11 -107 -13 -53 -22 -99 -20 -101 2 -2 41 17 87 42 46 24 100 50 121 57 55
17 89 51 167 160 46 64 79 101 99 110 36 14 162 144 211 215 170 250 379 402
645 469 33 8 130 23 215 32 277 31 424 -2 740 -165 102 -52 224 -115 273 -139
48 -24 87 -50 87 -57 0 -19 -85 -94 -170 -151 -41 -28 -156 -97 -255 -154 -99
-56 -239 -138 -311 -181 -197 -117 -276 -153 -471 -218 -309 -104 -731 -179
-1583 -281 -96 -12 -256 -34 -355 -50 -99 -15 -209 -31 -245 -35 -124 -12
-271 -72 -335 -136 l-20 -20 35 5 c41 7 296 26 825 61 893 60 1028 75 1460
166 195 41 277 65 594 176 494 173 1105 503 1481 801 58 46 190 159 294 250
347 307 451 379 601 417 99 25 265 17 265 -12 0 -19 -101 -192 -152 -261 -56
-75 -114 -109 -394 -231 -432 -187 -443 -193 -567 -316 -77 -75 -136 -154
-177 -235 -12 -25 -44 -72 -71 -106 -53 -67 -93 -141 -104 -192 -8 -37 3 -135
15 -130 4 2 49 53 100 113 51 61 107 117 124 127 17 9 61 54 98 101 152 191
233 238 788 452 532 206 584 240 980 641 220 223 271 263 327 264 24 0 23 2
142 -191 39 -64 79 -123 89 -131 9 -9 80 -34 157 -57 248 -74 286 -86 287 -96
0 -6 -17 -18 -38 -29 -60 -28 -145 -108 -132 -122 13 -12 194 -55 288 -68 187
-27 1206 -104 1217 -93 11 12 -21 49 -60 69 -23 12 -125 52 -227 89 -169 62
-191 72 -250 123 -40 35 -80 60 -105 66 -22 5 -78 30 -125 54 -47 24 -121 54
-165 66 -142 39 -330 102 -343 115 -16 15 -34 235 -21 249 20 22 176 -48 294
-132 39 -27 110 -84 158 -126 48 -41 91 -77 96 -80 4 -3 106 -21 227 -41 l219
-36 152 -70 c397 -181 688 -295 945 -368 219 -63 234 -68 284 -102 60 -40 204
-221 204 -255 0 -21 -71 -35 -245 -50 -88 -7 -209 -22 -270 -34 -348 -64 -664
-175 -653 -228 3 -15 16 -17 93 -14 106 3 272 -9 590 -44 162 -18 253 -24 307
-19 l78 6 122 -65 c100 -54 130 -66 168 -66 26 0 132 -11 236 -24 104 -14 251
-32 326 -41 144 -16 344 -23 355 -11 12 11 -79 95 -162 151 -44 29 -159 97
-255 150 -260 145 -331 193 -381 262 -24 32 -82 102 -130 157 -48 54 -100 122
-116 152 -27 52 -35 59 -183 147 -85 50 -164 101 -175 113 -11 11 -67 38 -124
59 -57 21 -115 48 -130 60 -14 12 -82 48 -151 81 -209 97 -249 122 -555 349
-213 157 -275 195 -513 314 -183 91 -227 126 -308 242 -30 42 -66 85 -82 95
-15 9 -94 72 -175 138 -82 67 -154 124 -160 128 -7 3 -73 -16 -147 -43z"/>
</g>
</svg>
